<?xml version="1.0" encoding="UTF-8" standalone="no"?>
<svg
   xmlns:dc="http://purl.org/dc/elements/1.1/"
   xmlns:cc="http://creativecommons.org/ns#"
   xmlns:rdf="http://www.w3.org/1999/02/22-rdf-syntax-ns#"
   xmlns:svg="http://www.w3.org/2000/svg"
   xmlns="http://www.w3.org/2000/svg"
   viewBox="0 0 816 1056"
   height="1056"
   width="816"
   xml:space="preserve"
   id="svg2"
   version="1.1"><metadata
     id="metadata8"><rdf:RDF><cc:Work
         rdf:about=""><dc:format>image/svg+xml</dc:format><dc:type
           rdf:resource="http://purl.org/dc/dcmitype/StillImage" /></cc:Work></rdf:RDF></metadata><defs
     id="defs6"><clipPath
       id="clipPath18"
       clipPathUnits="userSpaceOnUse"><path
         id="path16"
         d="m 436.155,455.811 c -22.437,-0.146 -40.582,-18.378 -40.582,-40.849 v 0 c 0,-22.554 18.291,-40.845 40.854,-40.845 v 0 c 22.559,0 40.845,18.291 40.845,40.845 v 0 c 0,22.471 -18.14,40.703 -40.573,40.849 v 0 z" /></clipPath><clipPath
       id="clipPath28"
       clipPathUnits="userSpaceOnUse"><path
         id="path26"
         d="m 395.57324,374.11638 h 81.69814 v 81.69438 h -81.69814 z" /></clipPath><radialGradient
       id="radialGradient38"
       spreadMethod="pad"
       gradientTransform="matrix(81.698135,0,0,81.698135,426.61894,425.58408)"
       gradientUnits="userSpaceOnUse"
       r="0.66999799"
       cy="0"
       cx="0"
       fy="0"
       fx="0"><stop
         id="stop30"
         offset="0"
         style="stop-opacity:1;stop-color:#f7efe0" /><stop
         id="stop32"
         offset="0.25"
         style="stop-opacity:1;stop-color:#ddbe7e" /><stop
         id="stop34"
         offset="0.699997"
         style="stop-opacity:1;stop-color:#bc8e09" /><stop
         id="stop36"
         offset="1"
         style="stop-opacity:1;stop-color:#bc8e09" /></radialGradient><clipPath
       id="clipPath48"
       clipPathUnits="userSpaceOnUse"><path
         id="path46"
         d="M 0,792 H 612 V 0 H 0 Z" /></clipPath></defs><g
     transform="matrix(1.3333333,0,0,-1.3333333,0,1056)"
     id="g10"><g
       id="g12"><g
         clip-path="url(#clipPath18)"
         id="g14"><g
           id="g20"><g
             id="g22"><g
               clip-path="url(#clipPath28)"
               id="g24"><path
                 id="path40"
                 style="fill:url(#radialGradient38);stroke:none"
                 d="m 436.155,455.811 c -22.437,-0.146 -40.582,-18.378 -40.582,-40.849 v 0 c 0,-22.554 18.291,-40.845 40.854,-40.845 v 0 c 22.559,0 40.845,18.291 40.845,40.845 v 0 c 0,22.471 -18.14,40.703 -40.573,40.849 v 0 z" /></g></g></g></g></g><g
       id="g42"><g
         clip-path="url(#clipPath48)"
         id="g44"><g
           transform="translate(465.7227,419.1367)"
           id="g50"><path
             id="path52"
             style="fill:#ffffff;fill-opacity:1;fill-rule:nonzero;stroke:none"
             d="m 0,0 c 0.486,-0.568 1.156,-0.924 1.893,-0.924 0.738,0 1.407,0.356 1.896,0.927 3.304,-3.012 5.814,-5.686 7.577,-7.937 0.031,0.322 0.057,0.647 0.073,0.963 -1.91,2.594 -4.311,5.268 -7.078,7.954 0.155,0.41 0.244,0.855 0.244,1.335 0,0.57 -0.132,1.091 -0.346,1.558 C 4.485,4.1 4.716,4.316 4.929,4.524 6.124,5.693 7.964,7.778 9.236,9.387 9.144,9.649 9.049,9.915 8.95,10.178 7.398,8.41 5.64,6.636 3.606,4.812 3.137,5.271 2.549,5.558 1.893,5.558 1.24,5.558 0.643,5.263 0.175,4.806 c -7.148,6.161 -16.073,12.22 -25.698,17.335 -6.484,3.442 -12.08,5.393 -16.614,6.481 0.163,0.37 0.207,0.732 0.133,1.056 11.279,4.61 21.724,4.714 27.347,4.284 -0.271,0.102 -0.539,0.209 -0.813,0.307 -10.247,1.021 -19.376,-0.867 -27.023,-3.866 -0.309,0.23 -0.722,0.363 -1.212,0.379 1.382,2.218 2.641,3.634 3.447,4.396 -0.425,-0.117 -0.846,-0.238 -1.263,-0.366 l -0.023,-0.031 c -0.949,-1.102 -2.004,-2.433 -3.076,-4.072 -0.481,-0.09 -0.984,-0.249 -1.484,-0.506 -0.37,-0.185 -0.697,-0.409 -0.987,-0.641 -1.879,0.249 -3.463,0.345 -4.704,0.356 -0.383,-0.253 -0.752,-0.513 -1.126,-0.777 1.642,0.019 3.35,-0.113 5.074,-0.353 -0.252,-0.336 -0.426,-0.675 -0.503,-1.012 -7.382,-3.748 -12.917,-8.236 -16.123,-11.182 -0.311,-0.532 -0.615,-1.07 -0.909,-1.616 3.111,2.863 7.924,6.903 17.173,11.766 0.198,-0.333 0.548,-0.559 0.991,-0.672 -2.066,-4.316 -3.97,-10.084 -5.123,-18.008 -0.839,-5.776 -1.157,-10.327 -1.176,-14.312 -0.42,-0.044 -0.822,-0.176 -1.174,-0.424 -0.429,-0.303 -0.719,-0.735 -0.893,-1.234 -6.94,3.053 -11.738,6.365 -14.298,8.323 -0.044,-0.406 -0.08,-0.812 -0.114,-1.223 3.226,-2.536 8.014,-5.522 14.247,-8.292 0.033,-0.749 0.279,-1.531 0.774,-2.244 0.47,-0.66 1.067,-1.141 1.704,-1.431 0.282,-3.773 0.757,-7.355 1.189,-11.527 0.063,-0.615 0.144,-1.225 0.234,-1.824 -0.66,-0.022 -1.215,-0.269 -1.532,-0.752 -0.409,-0.617 -0.289,-1.472 0.216,-2.257 -3.052,-1.013 -5.375,-1.588 -6.885,-1.912 0.207,-0.235 0.407,-0.473 0.617,-0.702 1.984,0.297 4.358,0.942 6.949,1.825 0.166,-0.15 0.349,-0.293 0.543,-0.424 0.336,-0.218 0.685,-0.383 1.029,-0.499 1.097,-4.364 2.615,-7.937 3.706,-10.047 0.533,-0.259 1.076,-0.505 1.626,-0.746 -2.061,3.267 -3.314,7.046 -4.11,10.615 0.648,0.026 1.2,0.268 1.51,0.741 0.356,0.537 0.307,1.248 -0.037,1.938 6.352,2.529 13.58,6.093 20.241,9.714 0.922,-0.802 2.365,-1.081 3.772,-0.601 0.956,0.33 1.705,0.945 2.168,1.68 0.88,-0.077 1.764,-0.15 2.664,-0.211 15.35,-1.024 24.622,0.984 29.28,2.136 0.093,0.302 0.176,0.605 0.263,0.915 -10.017,-2.141 -20.218,-2.504 -31.718,-1.272 0.014,0.3 -0.017,0.603 -0.109,0.902 0.279,0.16 0.569,0.324 0.844,0.486 C -11.234,-9.008 -4.596,-3.962 0,0 m -46.202,26.009 v 0 c 0.61,0.045 1.283,0.236 1.944,0.573 0.64,0.324 1.179,0.741 1.571,1.191 5.121,-1.282 10.002,-3.233 13.374,-4.883 6.489,-3.177 16.537,-9.119 28.083,-18.554 0.246,-0.2 0.465,-0.391 0.702,-0.59 -0.181,-0.43 -0.294,-0.913 -0.294,-1.428 0,-0.389 0.067,-0.755 0.17,-1.102 -5.413,-4.318 -12.451,-9.099 -21.915,-14.965 -0.926,0.757 -2.328,1.009 -3.7,0.539 -1.032,-0.35 -1.828,-1.046 -2.27,-1.86 -3.489,0.535 -7.098,1.198 -10.862,1.991 -3.646,0.765 -6.98,1.721 -10.022,2.768 -0.017,0.77 -0.266,1.585 -0.782,2.321 -0.447,0.64 -1.019,1.113 -1.631,1.408 0.075,6.289 0.629,13.98 2.279,21.849 0.92,4.366 2.109,7.906 3.353,10.742 m -3.412,-52.819 v 0 c -0.296,0.197 -0.603,0.337 -0.916,0.454 -0.369,2.62 -0.549,4.88 -0.722,6.384 -0.163,1.418 -0.373,3.817 -0.493,6.893 0.453,0.026 0.89,0.156 1.265,0.419 0.396,0.275 0.666,0.658 0.843,1.105 5.943,-2.158 12.87,-4.01 20.707,-5.181 0.018,-0.236 0.052,-0.475 0.133,-0.708 0.014,-0.031 0.03,-0.05 0.044,-0.08 -8.031,-4.811 -14.759,-7.964 -20.01,-10.014 -0.238,0.266 -0.526,0.512 -0.851,0.728" /></g><g
           transform="translate(371.2471,340.0957)"
           id="g54"><path
             id="path56"
             style="fill:#0480c4;fill-opacity:1;fill-rule:nonzero;stroke:none"
             d="m 0,0 v 16.31 h -6.115 v 2.059 H 8.563 V 16.31 H 2.444 L 2.444,0 Z m -15.794,-3.908 v 0 2.341 h 2.344 v -2.341 z m -2.493,23.585 2.65,3.679 h 2.393 l 2.671,-3.679 h -2.125 l -1.792,2.458 -1.798,-2.458 z M -19.882,0 V 18.369 H -7.203 V 16.31 h -10.235 v -5.846 h 9.542 V 8.41 h -9.542 V 2.06 H -7.12 V 0 Z m -5.014,18.369 h 2.444 V 0 h -2.444 z m -2.055,0 L -33.486,0 h -2.782 l -6.479,18.369 h 2.647 l 5.238,-15.929 0.056,0.008 5.311,15.921 z M -64.788,9.182 v 0 c 0,-2.125 0.515,-3.875 1.545,-5.243 1.145,-1.549 2.749,-2.315 4.81,-2.315 2.058,0 3.66,0.766 4.81,2.315 1.026,1.368 1.541,3.118 1.541,5.243 0,2.131 -0.515,3.877 -1.541,5.247 -1.15,1.541 -2.752,2.317 -4.81,2.317 -2.061,0 -3.665,-0.776 -4.81,-2.317 -1.03,-1.37 -1.545,-3.116 -1.545,-5.247 m -2.447,0 c 0,2.783 0.769,5.05 2.296,6.815 1.593,1.871 3.766,2.805 6.506,2.805 2.741,0 4.906,-0.934 6.505,-2.805 1.528,-1.765 2.285,-4.032 2.285,-6.815 0,-2.777 -0.757,-5.053 -2.285,-6.817 -1.599,-1.863 -3.764,-2.804 -6.505,-2.804 -2.74,0 -4.913,0.941 -6.506,2.804 -1.527,1.764 -2.296,4.04 -2.296,6.817 m -8.485,10.369 h -1.512 c 0,0.593 0.069,1.04 0.206,1.345 0.132,0.293 0.448,0.615 0.935,0.964 0.488,0.357 0.732,0.74 0.732,1.167 0,0.769 -0.367,1.15 -1.105,1.15 -0.824,0 -1.235,-0.445 -1.235,-1.339 h -1.645 c 0,0.931 0.31,1.641 0.923,2.141 0.498,0.391 1.119,0.584 1.854,0.584 0.652,0 1.236,-0.127 1.754,-0.38 0.799,-0.416 1.202,-1.11 1.202,-2.088 0,-0.752 -0.461,-1.461 -1.387,-2.131 -0.481,-0.342 -0.722,-0.818 -0.722,-1.413 m -0.891,-3.392 v 0 l -3.103,-8.57 h 6.234 l -3.08,8.567 z M -85.054,0 l 7.176,18.369 h 2.697 L -68.001,0 h -2.7 l -2.005,5.528 h -7.757 L -82.543,0 Z m -12.987,8.41 v 0 -6.35 h 6.116 c 1.032,0 1.862,0.291 2.494,0.875 0.639,0.585 0.954,1.389 0.954,2.416 0,2.043 -1.328,3.059 -3.985,3.059 z m 0,7.9 v 0 -5.846 h 4.887 c 2.602,0 3.908,0.986 3.908,2.935 0,1.166 -0.388,1.974 -1.162,2.419 -0.583,0.325 -1.497,0.492 -2.746,0.492 z M -100.489,0 v 18.369 h 6.669 c 2.499,0 4.122,-0.227 4.856,-0.674 1.444,-0.861 2.159,-2.136 2.159,-3.829 0,-2.008 -0.906,-3.381 -2.725,-4.114 V 9.699 c 1.115,-0.225 1.976,-0.731 2.584,-1.52 0.611,-0.785 0.916,-1.753 0.916,-2.9 0,-1.603 -0.532,-2.881 -1.585,-3.838 C -88.669,0.478 -90.004,0 -91.614,0 Z m -25.744,0 v 18.369 h 2.522 l 9.743,-14.936 0.056,0.04 v 14.896 h 2.314 V 0 h -2.674 l -9.648,14.738 V 0 Z m -10.955,19.677 -3.371,3.679 h 2.804 l 2.215,-3.679 z m 0.573,-3.518 v 0 l -3.103,-8.57 h 6.233 l -3.083,8.567 z M -145.056,0 l 7.174,18.369 h 2.701 L -128.008,0 h -2.698 l -2.004,5.528 h -7.76 L -142.547,0 Z m -14.741,9.182 v 0 c 0,-2.125 0.516,-3.875 1.545,-5.243 1.147,-1.549 2.75,-2.315 4.812,-2.315 2.056,0 3.655,0.766 4.808,2.315 1.029,1.368 1.541,3.118 1.541,5.243 0,2.131 -0.512,3.877 -1.541,5.247 -1.153,1.541 -2.752,2.317 -4.808,2.317 -2.062,0 -3.665,-0.776 -4.812,-2.317 -1.029,-1.37 -1.545,-3.116 -1.545,-5.247 m -2.439,0 c 0,2.783 0.765,5.05 2.288,6.815 1.594,1.871 3.76,2.805 6.508,2.805 2.743,0 4.904,-0.934 6.503,-2.805 1.529,-1.765 2.29,-4.032 2.29,-6.815 0,-2.777 -0.761,-5.053 -2.29,-6.817 -1.599,-1.863 -3.76,-2.804 -6.503,-2.804 -2.748,0 -4.914,0.941 -6.508,2.804 -1.523,1.764 -2.288,4.04 -2.288,6.817 m -14.611,7.128 v 0 -5.846 h 5.501 V 8.721 h -5.501 V 2.06 h 4.064 c 2.121,0 3.71,0.697 4.753,2.079 0.947,1.235 1.418,2.952 1.418,5.149 0,4.682 -2.038,7.022 -6.123,7.022 z M -179.291,0 v 8.721 h -1.802 v 1.743 h 1.802 v 7.905 h 6.302 c 5.883,0 8.82,-2.92 8.82,-8.748 0,-6.411 -2.937,-9.621 -8.82,-9.621 z m -21.4,16.31 v 0 -6.737 h 4.785 c 2.674,0 4.01,1.117 4.01,3.365 0,2.246 -1.336,3.372 -4.01,3.372 z M -203.134,0 v 18.369 h 8.052 c 1.784,0 3.171,-0.47 4.156,-1.393 0.985,-0.926 1.476,-2.273 1.476,-4.038 0,-1.765 -0.491,-3.112 -1.476,-4.039 -0.985,-0.925 -2.372,-1.385 -4.156,-1.385 h -5.609 V 0 Z m -11.621,-3.908 v 0 2.341 h 2.337 v -2.341 z m -2.499,23.585 2.649,3.679 h 2.393 l 2.673,-3.679 h -2.128 l -1.791,2.458 -1.802,-2.458 z m 3.706,-3.518 v 0 l -3.101,-8.57 h 6.232 l -3.078,8.567 z M -221.986,0 l 7.173,18.369 h 2.701 L -204.937,0 h -2.694 l -2.004,5.528 h -7.762 L -219.472,0 Z m -8.41,0 v 16.31 h -6.123 v 2.059 h 14.687 V 16.31 h -6.12 V 0 Z" /></g><g
           transform="translate(355.2109,425.0566)"
           id="g58"><path
             id="path60"
             style="fill:#0480c4;fill-opacity:1;fill-rule:nonzero;stroke:none"
             d="M 0,0 H -11.436 V 10.467 H 24.026 V 0 H 12.588 V -30.383 H 0 Z m -48.876,10.467 h 33.809 V 0 h -21.228 v -5.095 h 19.283 v -9.723 h -19.283 v -5.09 h 21.852 v -10.475 h -34.433 z m -75.141,-30.405 v 0 c -5.439,0 -9.847,4.404 -9.843,9.84 0,5.442 4.404,9.852 9.843,9.852 5.435,0 9.842,-4.41 9.845,-9.852 -0.003,-5.436 -4.41,-9.84 -9.845,-9.84 m 0,31.101 c -11.745,0 -21.255,-9.512 -21.255,-21.261 0,-11.736 9.51,-21.253 21.255,-21.253 11.737,0 21.258,9.517 21.258,21.253 0,11.749 -9.521,21.261 -21.258,21.261 m 59.52,-0.696 h 12.591 v -40.85 h -12.591 z m -15.04,-40.85 h -14.071 l -12.187,40.85 h 12.697 l 6.699,-24.765 h 0.11 l 2.336,8.785 16.881,15.032 z m -79.621,14.597 v 0 l -3.663,12.585 h -0.114 l -3.941,-12.585 z m -9.896,26.253 h 12.301 l 14.869,-40.85 h -13.044 l -1.715,5.84 h -12.983 l -1.831,-5.84 h -12.642 z m -38.842,-31.124 v 0 h 7.382 c 2.629,0 4.923,0.749 4.923,3.893 0,2.407 -1.434,3.724 -4.414,3.724 h -7.891 z m 0,15.223 v 0 h 6.635 c 2.634,0 4.295,0.746 4.295,3.376 0,2.058 -1.717,2.804 -4.295,2.804 h -6.635 z m -12.586,15.901 h 22.365 c 10.76,0 13.051,-6.058 13.051,-10.238 0,-4.12 -2.005,-6.351 -5.035,-8.009 3.66,-1.258 7.092,-4.172 7.092,-10.184 0,-8.184 -7.092,-12.419 -14.303,-12.419 h -23.17 z" /></g><g
           transform="translate(275.5029,435.5234)"
           id="g62"><path
             id="path64"
             style="fill:#bd8f2d;fill-opacity:1;fill-rule:nonzero;stroke:none"
             d="M 0,0 H 12.931 L -3.026,-11.379 Z" /></g></g></g></g></svg>